<svg preserveAspectRatio="none" width="100%" height="100%" overflow="visible" style="display: block;" viewBox="0 0 450 700" fill="none" xmlns="http://www.w3.org/2000/svg">
<path id="Exclude" d="M450 700H0V0H450V700ZM221.488 102.001C201.588 101.917 181.884 105.832 163.603 113.5C145.321 121.168 128.853 132.425 115.226 146.571C101.437 160.678 90.7725 177.403 83.8955 195.704C77.0186 214.005 74.076 233.491 75.252 252.949C75.9408 264.373 76.6305 275.83 77.5088 287.053C79.9888 321.409 83.1923 350.943 87.0674 374.815C92.5786 408.197 99.1748 430.373 107.355 442.671C123.7 466.493 161.297 507.921 190.075 521.193C191.23 521.718 192.487 521.993 193.761 522H256.105C257.359 521.998 258.599 521.735 259.739 521.228C287.76 508.493 325.444 467.064 342.115 443.057C350.606 430.809 357.426 408.449 362.954 374.631C366.709 351.229 369.981 321.728 372.685 286.801L374.752 252.646C375.917 233.251 372.975 213.83 366.109 195.592C359.244 177.354 348.602 160.69 334.847 146.639C306.895 117.861 269.143 102.001 228.55 102.001H221.488Z" fill="var(--fill-0, black)" fill-opacity="0.2"/>
</svg>
