<svg preserveAspectRatio="none" width="100%" height="100%" overflow="visible" style="display: block;" viewBox="0 0 14.625 14.625" fill="none" xmlns="http://www.w3.org/2000/svg">
<g id="Group">
<path id="Vector" fill-rule="evenodd" clip-rule="evenodd" d="M1.125 5.0625V3.5625C1.1247 3.24232 1.18755 2.92522 1.30994 2.62936C1.43233 2.33349 1.61187 2.06467 1.83827 1.83827C2.06467 1.61187 2.33349 1.43233 2.62936 1.30994C2.92522 1.18755 3.24232 1.1247 3.5625 1.125H5.0625C5.21168 1.125 5.35476 1.06574 5.46025 0.960248C5.56574 0.854758 5.625 0.711684 5.625 0.5625C5.625 0.413316 5.56574 0.270242 5.46025 0.164752C5.35476 0.0592632 5.21168 0 5.0625 0H3.5625C2.61767 0 1.71153 0.375334 1.04343 1.04343C0.375334 1.71153 0 2.61767 0 3.5625V5.0625C0 5.21168 0.0592632 5.35476 0.164752 5.46025C0.270242 5.56574 0.413316 5.625 0.5625 5.625C0.711684 5.625 0.854758 5.56574 0.960248 5.46025C1.06574 5.35476 1.125 5.21168 1.125 5.0625ZM9.5625 1.125H11.0625C11.3827 1.1247 11.6998 1.18755 11.9956 1.30994C12.2915 1.43233 12.5603 1.61187 12.7867 1.83827C13.0131 2.06467 13.1927 2.33349 13.3151 2.62936C13.4375 2.92522 13.5003 3.24232 13.5 3.5625V5.0625C13.5 5.21168 13.5593 5.35476 13.6648 5.46025C13.7702 5.56574 13.9133 5.625 14.0625 5.625C14.2117 5.625 14.3548 5.56574 14.4602 5.46025C14.5657 5.35476 14.625 5.21168 14.625 5.0625V3.5625C14.625 2.61767 14.2497 1.71153 13.5816 1.04343C12.9135 0.375334 12.0073 0 11.0625 0H9.5625C9.41332 0 9.27024 0.0592632 9.16475 0.164752C9.05926 0.270242 9 0.413316 9 0.5625C9 0.711684 9.05926 0.854758 9.16475 0.960248C9.27024 1.06574 9.41332 1.125 9.5625 1.125ZM0 9.5625V11.0625C0 12.0073 0.375334 12.9135 1.04343 13.5816C1.71153 14.2497 2.61767 14.625 3.5625 14.625H5.0625C5.21168 14.625 5.35476 14.5657 5.46025 14.4602C5.56574 14.3548 5.625 14.2117 5.625 14.0625C5.625 13.9133 5.56574 13.7702 5.46025 13.6648C5.35476 13.5593 5.21168 13.5 5.0625 13.5H3.5625C3.24232 13.5003 2.92522 13.4375 2.62936 13.3151C2.33349 13.1927 2.06467 13.0131 1.83827 12.7867C1.61187 12.5603 1.43233 12.2915 1.30994 11.9956C1.18755 11.6998 1.1247 11.3827 1.125 11.0625V9.5625C1.125 9.41332 1.06574 9.27024 0.960248 9.16475C0.854758 9.05926 0.711684 9 0.5625 9C0.413316 9 0.270242 9.05926 0.164752 9.16475C0.0592632 9.27024 0 9.41332 0 9.5625ZM9.5625 14.625H11.0625C12.0073 14.625 12.9135 14.2497 13.5816 13.5816C14.2497 12.9135 14.625 12.0073 14.625 11.0625V9.5625C14.625 9.41332 14.5657 9.27024 14.4602 9.16475C14.3548 9.05926 14.2117 9 14.0625 9C13.9133 9 13.7702 9.05926 13.6648 9.16475C13.5593 9.27024 13.5 9.41332 13.5 9.5625V11.0625C13.5003 11.3827 13.4375 11.6998 13.3151 11.9956C13.1927 12.2915 13.0131 12.5603 12.7867 12.7867C12.5603 13.0131 12.2915 13.1927 11.9956 13.3151C11.6998 13.4375 11.3827 13.5003 11.0625 13.5H9.5625C9.41332 13.5 9.27024 13.5593 9.16475 13.6648C9.05926 13.7702 9 13.9133 9 14.0625C9 14.2117 9.05926 14.3548 9.16475 14.4602C9.27024 14.5657 9.41332 14.625 9.5625 14.625ZM9.375 4.6875V5.4375C9.375 5.58668 9.43426 5.72976 9.53975 5.83525C9.64524 5.94074 9.78832 6 9.9375 6C10.0867 6 10.2298 5.94074 10.3352 5.83525C10.4407 5.72976 10.5 5.58668 10.5 5.4375V4.6875C10.5 4.53832 10.4407 4.39524 10.3352 4.28975C10.2298 4.18426 10.0867 4.125 9.9375 4.125C9.78832 4.125 9.64524 4.18426 9.53975 4.28975C9.43426 4.39524 9.375 4.53832 9.375 4.6875ZM4.125 4.6875V5.4375C4.125 5.58668 4.18426 5.72976 4.28975 5.83525C4.39524 5.94074 4.53832 6 4.6875 6C4.83668 6 4.97976 5.94074 5.08525 5.83525C5.19074 5.72976 5.25 5.58668 5.25 5.4375V4.6875C5.25 4.53832 5.19074 4.39524 5.08525 4.28975C4.97976 4.18426 4.83668 4.125 4.6875 4.125C4.53832 4.125 4.39524 4.18426 4.28975 4.28975C4.18426 4.39524 4.125 4.53832 4.125 4.6875ZM7.125 7.7145V5.8125C7.125 5.66332 7.18426 5.52024 7.28975 5.41475C7.39524 5.30926 7.53832 5.25 7.6875 5.25C7.83668 5.25 7.97976 5.30926 8.08525 5.41475C8.19074 5.52024 8.25 5.66332 8.25 5.8125V8.0625C8.25 8.16702 8.22087 8.26947 8.1659 8.35836C8.11092 8.44725 8.03226 8.51906 7.93875 8.56575L7.18875 8.94075C7.12259 8.97443 7.05042 8.99467 6.9764 9.00032C6.90238 9.00597 6.82797 8.99691 6.75747 8.97367C6.68696 8.95043 6.62176 8.91346 6.56561 8.86489C6.50946 8.81633 6.46348 8.75713 6.43032 8.69071C6.39716 8.62429 6.37748 8.55197 6.3724 8.4779C6.36733 8.40384 6.37696 8.32951 6.40076 8.25918C6.42455 8.18886 6.46202 8.12395 6.51102 8.06818C6.56002 8.01241 6.61958 7.96689 6.68625 7.93425L7.125 7.7145ZM9.54 9.54C9.64663 9.44064 9.78767 9.38655 9.93339 9.38912C10.0791 9.39169 10.2182 9.45072 10.3212 9.55378C10.4243 9.65684 10.4833 9.79588 10.4859 9.94161C10.4885 10.0873 10.4344 10.2284 10.335 10.335C10.233 10.437 10.335 10.3357 10.3342 10.3365C9.53282 11.1379 8.44587 11.5881 7.3125 11.5881C6.17913 11.5881 5.09218 11.1379 4.29075 10.3365L4.29 10.335C4.19064 10.2284 4.13655 10.0873 4.13912 9.94161C4.14169 9.79588 4.20072 9.65684 4.30378 9.55378C4.40684 9.45072 4.54588 9.39169 4.69161 9.38912C4.83733 9.38655 4.97837 9.44064 5.085 9.54C5.187 9.642 5.08575 9.54 5.0865 9.54075C5.67693 10.131 6.47763 10.4626 7.3125 10.4626C8.14737 10.4626 8.94807 10.131 9.5385 9.54075L9.54 9.54Z" fill="var(--fill-0, white)"/>
</g>
</svg>
