<svg width="106" height="24" viewBox="0 0 106 24" fill="none" xmlns="http://www.w3.org/2000/svg">
<g id="Logo Baspen">
<g id="Group">
<path id="Vector" d="M25.1018 7.72692C26.099 6.44962 27.449 5.80873 29.156 5.80873C30.8631 5.80873 32.2044 6.44962 33.1842 7.72692C34.164 9.0087 34.6517 10.6266 34.6517 12.5896C34.6517 14.705 34.1248 16.4171 33.0709 17.7212C32.0171 19.0254 30.6454 19.6798 28.9557 19.6798C27.1833 19.6798 25.8377 19.0075 24.9276 17.6585L24.9537 19.3212H21.5962V1.09839H25.1018V7.72692ZM25.8116 9.68545C25.2542 10.4115 24.9798 11.3975 24.9798 12.6389C24.9798 13.9207 25.2542 14.9246 25.7985 15.6596C26.3472 16.3946 27.1006 16.7622 28.063 16.7622C28.9775 16.7622 29.7091 16.3857 30.2621 15.6372C30.8195 14.8843 31.0939 13.8804 31.0939 12.6165C31.0939 11.4064 30.8152 10.4339 30.2621 9.69889C29.7047 8.96389 28.9731 8.59638 28.063 8.59638C27.118 8.59638 26.3646 8.9594 25.8116 9.68545Z" fill="var(--fill-0, #08304C)" fill-opacity="0.7"/>
<path id="Vector_2" d="M45.1729 19.3209C45.0553 18.9803 44.9769 18.5545 44.9247 18.0436C43.849 19.1506 42.4642 19.7063 40.7746 19.7063C39.3506 19.7063 38.2271 19.3523 37.4171 18.6441C36.6027 17.936 36.1978 16.959 36.1978 15.7131C36.1978 15.1484 36.2674 14.6554 36.4111 14.2296C36.5505 13.8038 36.7813 13.4453 37.1079 13.154C37.4301 12.8627 37.7393 12.6251 38.0267 12.4369C38.3142 12.2487 38.7192 12.0963 39.233 11.9753C39.7469 11.8543 40.1606 11.7646 40.4741 11.7064C40.7877 11.6481 41.2275 11.5809 41.7936 11.5137C43.0347 11.3433 43.8708 11.1641 44.2932 10.9758C44.7156 10.7876 44.9247 10.438 44.9247 9.92711C44.9247 8.74841 44.1539 8.1613 42.6123 8.1613C41.798 8.1613 41.2014 8.3092 40.8225 8.60948C40.4393 8.90975 40.1911 9.43412 40.0778 10.1826H36.7726C36.9685 7.21565 38.95 5.73218 42.7168 5.73218C46.4445 5.73218 48.3127 7.16635 48.3127 10.0302V15.7355C48.3127 17.4072 48.4607 18.5993 48.7612 19.3164H45.1729V19.3209ZM42.412 13.5887C41.3668 13.759 40.6875 13.9697 40.374 14.2296C40.0082 14.5523 39.8296 14.996 39.8296 15.5607C39.8296 16.1075 39.9994 16.5377 40.3391 16.8514C40.6788 17.1652 41.1535 17.322 41.7675 17.322C42.7125 17.322 43.4702 17.0621 44.045 16.5422C44.6155 16.0223 44.9029 15.3007 44.9029 14.3775V12.894C44.4848 13.154 43.6531 13.3826 42.412 13.5887Z" fill="var(--fill-0, #08304C)" fill-opacity="0.7"/>
<path id="Vector_3" d="M58.6551 9.95391C58.555 9.28613 58.3111 8.82003 57.9192 8.54664C57.5316 8.27325 56.9611 8.1388 56.2165 8.1388C55.585 8.1388 55.0973 8.25532 54.7489 8.48389C54.4006 8.71246 54.2264 9.03515 54.2264 9.44299C54.2264 9.91806 54.4267 10.2542 54.823 10.4424C55.2236 10.6307 55.9334 10.8368 56.9611 11.0564C57.144 11.0923 57.2747 11.1147 57.3574 11.1326C57.954 11.2536 58.433 11.3567 58.7858 11.4508C59.1429 11.5449 59.5783 11.6973 60.0922 11.9124C60.6061 12.1276 61.0067 12.3651 61.2854 12.6295C61.5685 12.8939 61.8167 13.248 62.0301 13.6917C62.2478 14.1354 62.3523 14.6463 62.3523 15.2289C62.3523 16.6093 61.8298 17.7029 60.7846 18.5051C59.7395 19.3074 58.3068 19.7062 56.4821 19.7062C54.7402 19.7062 53.3075 19.3208 52.1796 18.5544C51.0518 17.788 50.4813 16.6093 50.4639 15.0228H53.8214C53.939 16.4883 54.8491 17.2233 56.5562 17.2233C57.266 17.2233 57.8365 17.0754 58.2589 16.7752C58.6813 16.4749 58.8947 16.0805 58.8947 15.583C58.8947 15.0855 58.703 14.7404 58.3242 14.5343C57.941 14.3281 57.2355 14.1085 56.2121 13.8665C56.1294 13.8486 56.0641 13.8306 56.0118 13.8172C55.8942 13.7813 55.6417 13.7231 55.241 13.6379C54.8447 13.5528 54.566 13.49 54.4093 13.4452C54.2525 13.4004 53.9956 13.3287 53.6385 13.2301C53.2814 13.127 53.0201 13.0284 52.8546 12.9343C52.6891 12.8402 52.467 12.7192 52.1971 12.5757C51.9227 12.4323 51.718 12.271 51.5874 12.1052C51.4567 11.9349 51.3087 11.7332 51.1519 11.5046C50.9951 11.2716 50.8863 11.0116 50.8297 10.7248C50.773 10.4335 50.7426 10.1197 50.7426 9.77912C50.7426 8.47941 51.2303 7.48446 52.2101 6.78531C53.1899 6.08615 54.5704 5.73657 56.3602 5.73657C57.9671 5.73657 59.2866 6.07719 60.3143 6.75842C61.342 7.43964 61.882 8.5063 61.9299 9.95839H58.6551V9.95391Z" fill="var(--fill-0, #08304C)" fill-opacity="0.7"/>
<path id="Vector_4" d="M67.7782 7.75339C68.7057 6.42231 70.0339 5.75901 71.7584 5.75901C73.4829 5.75901 74.8677 6.3999 75.9085 7.6772C76.9536 8.95451 77.4762 10.6621 77.4762 12.7954C77.4762 14.857 76.9667 16.5197 75.9477 17.7701C74.9286 19.025 73.583 19.6525 71.9065 19.6525C70.182 19.6525 68.8668 18.9937 67.9523 17.6805V23.9998H64.4468V6.11307H67.7782V7.75339ZM68.636 9.74778C68.0961 10.4649 67.8304 11.4643 67.8304 12.7416C67.8304 14.0189 68.1048 15.0183 68.6491 15.7354C69.1934 16.4525 69.9512 16.811 70.9136 16.811C71.8586 16.811 72.5989 16.4525 73.1388 15.7354C73.6788 15.0183 73.9488 14.0368 73.9488 12.7909C73.9488 11.5136 73.6745 10.5052 73.1258 9.77019C72.5814 9.03518 71.8324 8.67216 70.8874 8.67216C69.925 8.67216 69.176 9.0307 68.636 9.74778Z" fill="var(--fill-0, #08304C)" fill-opacity="0.7"/>
<path id="Vector_5" d="M89.5038 18.5232C88.4369 19.3075 87.161 19.7019 85.6891 19.7019C83.7164 19.7019 82.1269 19.07 80.9293 17.8061C79.7274 16.5423 79.1265 14.8706 79.1265 12.7911C79.1265 10.7429 79.7318 9.05326 80.9424 7.72218C82.153 6.3911 83.6946 5.72779 85.5671 5.72779C87.505 5.72779 89.0509 6.40454 90.1919 7.76251C91.3372 9.12049 91.9076 10.958 91.9076 13.2751V13.6336H82.7061C82.7235 14.7765 82.9935 15.6459 83.5161 16.242C84.0386 16.8381 84.7702 17.1384 85.7152 17.1384C86.9563 17.1384 87.8272 16.4975 88.3237 15.2202H91.7073C91.3067 16.6409 90.5707 17.7389 89.5038 18.5232ZM87.5006 9.19668C87.0347 8.64094 86.3902 8.36755 85.5628 8.36755C84.7833 8.36755 84.1388 8.63198 83.6249 9.16082C83.1111 9.68967 82.8062 10.4157 82.7061 11.3345H88.3237C88.2409 10.465 87.9666 9.75242 87.5006 9.19668Z" fill="var(--fill-0, #08304C)" fill-opacity="0.7"/>
<path id="Vector_6" d="M102.425 19.3204V11.6163C102.425 10.6796 102.277 9.96699 101.976 9.47848C101.676 8.99445 101.097 8.74795 100.235 8.74795C98.375 8.74795 97.4475 9.90873 97.4475 12.2258V19.3159H93.9419V6.11267H97.2994V7.95468C98.3576 6.48914 99.7773 5.75413 101.55 5.75413C102.926 5.75413 104.01 6.16645 104.807 6.98214C105.604 7.8023 106 8.96756 106 10.4869V19.3159H102.425V19.3204Z" fill="var(--fill-0, #08304C)" fill-opacity="0.7"/>
</g>
<path id="Union" d="M17.6338 0H8.63698V8.68568H3.59874C1.61121 8.68568 0 10.306 0 12.3047V17.7333H8.99685V9.04758H14.0351C16.0226 9.04758 17.6338 7.42728 17.6338 5.42855V0Z" fill="var(--fill-0, #08304C)" fill-opacity="0.7"/>
</g>
</svg>
