<svg preserveAspectRatio="none" width="100%" height="100%" overflow="visible" style="display: block;" viewBox="0 0 33.3333 33.3333" fill="none" xmlns="http://www.w3.org/2000/svg">
<g id="Group">
<path id="Vector" d="M33.3333 28.3333C33.3333 29.25 32.5833 30 31.6667 30H30V31.6667C30 32.5833 29.25 33.3333 28.3333 33.3333C27.4167 33.3333 26.6667 32.5833 26.6667 31.6667V30H25C24.0833 30 23.3333 29.25 23.3333 28.3333C23.3333 27.4167 24.0833 26.6667 25 26.6667H26.6667V25C26.6667 24.0833 27.4167 23.3333 28.3333 23.3333C29.25 23.3333 30 24.0833 30 25V26.6667H31.6667C32.5833 26.6667 33.3333 27.4167 33.3333 28.3333ZM23.2833 18.6333L15.85 23.1C15.5811 23.2601 15.2722 23.3403 14.9594 23.3315C14.6466 23.3226 14.3428 23.225 14.0833 23.05L9.7 20.1333L0 22.7833V25C0 27.75 2.25 30 5 30H18.3333C19.25 30 20 29.25 20 28.3333C19.9986 26.5529 20.5674 24.8188 21.6231 23.3852C22.6789 21.9515 24.166 20.8937 25.8667 20.3667L23.2833 18.6333ZM9.56667 16.7333L0 19.3333V5C0 2.25 2.25 0 5 0H25C27.75 0 30 2.25 30 5V18.3333C30 18.5667 29.95 18.8 29.85 19L24.25 15.2833C23.9921 15.1046 23.6878 15.0047 23.3741 14.9959C23.0604 14.987 22.751 15.0695 22.4833 15.2333L15.05 19.7L10.9167 16.95C10.7212 16.8172 10.499 16.729 10.2658 16.6916C10.0325 16.6541 9.79383 16.6684 9.56667 16.7333ZM9.16667 11.6667C10.55 11.6667 11.6667 10.55 11.6667 9.16667C11.6667 7.78333 10.55 6.66667 9.16667 6.66667C7.78333 6.66667 6.66667 7.78333 6.66667 9.16667C6.66667 10.55 7.78333 11.6667 9.16667 11.6667Z" fill="var(--fill-0, white)"/>
</g>
</svg>
