<svg preserveAspectRatio="none" width="100%" height="100%" overflow="visible" style="display: block;" viewBox="0 0 18 13.7109" fill="none" xmlns="http://www.w3.org/2000/svg">
<g id="Group">
<path id="Vector" d="M5.30856 5.79491C5.30856 5.79382 5.30838 5.7928 5.30835 5.79171C5.30343 4.92356 4.59584 4.21875 3.72656 4.21875C2.85423 4.21875 2.14453 4.92845 2.14453 5.80078C2.14453 6.67311 2.85423 7.38281 3.72656 7.38281C3.90897 7.38293 4.09001 7.35136 4.26161 7.28951C4.2564 7.6668 4.24185 8.00125 4.20824 8.12552C4.16669 8.21851 4.09908 8.29747 4.01359 8.35283C3.92811 8.4082 3.82841 8.43761 3.72656 8.4375C3.62281 8.43762 3.52132 8.4071 3.43484 8.34977C3.34836 8.29245 3.28073 8.21087 3.24042 8.11526C3.12697 7.84702 2.81749 7.72151 2.54932 7.83499C2.28108 7.94844 2.15561 8.25785 2.26905 8.52609C2.51729 9.11299 3.08939 9.49219 3.72656 9.49219C4.36373 9.49219 4.9358 9.11299 5.18407 8.52613C5.35894 8.11266 5.32023 6.83701 5.30856 5.79491ZM3.72656 6.32812C3.43579 6.32812 3.19922 6.09156 3.19922 5.80078C3.19922 5.51 3.43579 5.27344 3.72656 5.27344C4.01734 5.27344 4.25391 5.51 4.25391 5.80078C4.25391 6.09156 4.01734 6.32812 3.72656 6.32812ZM9.5271 5.79491V5.79171C9.52218 4.92356 8.81459 4.21875 7.94531 4.21875C7.07298 4.21875 6.36328 4.92845 6.36328 5.80078C6.36328 6.67311 7.07298 7.38281 7.94531 7.38281C8.12772 7.38293 8.30876 7.35136 8.48036 7.28951C8.47515 7.6668 8.4606 8.00125 8.42699 8.12552C8.38544 8.21851 8.31783 8.29747 8.23234 8.35283C8.14686 8.4082 8.04716 8.43761 7.94531 8.4375C7.84156 8.43762 7.74007 8.4071 7.65359 8.34977C7.56711 8.29245 7.49948 8.21087 7.45917 8.11526C7.34569 7.84702 7.03631 7.72151 6.76807 7.83499C6.49983 7.94844 6.37436 8.25785 6.4878 8.52609C6.73604 9.11299 7.30814 9.49219 7.94531 9.49219C8.58248 9.49219 9.15455 9.11299 9.40282 8.52613C9.51469 8.26165 9.5271 7.64427 9.52713 6.96094C9.52713 6.57612 9.53132 6.17034 9.5271 5.79491ZM7.94531 6.32812C7.65454 6.32812 7.41797 6.09156 7.41797 5.80078C7.41797 5.51 7.65454 5.27344 7.94531 5.27344C8.23609 5.27344 8.47266 5.51 8.47266 5.80078C8.47266 6.09156 8.23609 6.32812 7.94531 6.32812Z" fill="var(--fill-0, #08304C)" fill-opacity="0.7"/>
<path id="Vector_2" d="M16.418 2.10938H14.8008V1.05469H15.3132C15.5972 1.05469 15.8415 0.836473 15.8549 0.552832C15.8691 0.249996 15.6278 0 15.3281 0H13.2337C12.9497 0 12.7054 0.218215 12.692 0.501856C12.6777 0.804691 12.919 1.05469 13.2188 1.05469H13.7461V2.10938H1.58203C0.708293 2.10938 0 2.81767 0 3.69141V10.0195C0 10.8933 0.708293 11.6016 1.58203 11.6016H13.7461V12.6562H13.2337C12.9497 12.6562 12.7054 12.8745 12.692 13.1581C12.6777 13.4609 12.919 13.7109 13.2188 13.7109H15.3132C15.5972 13.7109 15.8415 13.4927 15.8549 13.2091C15.8691 12.9062 15.6278 12.6562 15.3281 12.6562H14.8008V11.6016H16.418C17.2917 11.6016 18 10.8933 18 10.0195V3.69141C18 2.81767 17.2917 2.10938 16.418 2.10938ZM1.05469 10.0195V3.69141C1.05469 3.40017 1.2908 3.16406 1.58203 3.16406H13.7461V10.5469H1.58203C1.2908 10.5469 1.05469 10.3108 1.05469 10.0195ZM16.9453 10.0195C16.9453 10.3103 16.7087 10.5469 16.418 10.5469H14.8008V3.16406H16.418C16.7087 3.16406 16.9453 3.40063 16.9453 3.69141V10.0195Z" fill="var(--fill-0, #08304C)" fill-opacity="0.7"/>
</g>
</svg>
